<svg xmlns="http://www.w3.org/2000/svg" viewBox="0 0 100 100">
  <ellipse cx="50" cy="20" rx="7" ry="20" fill="black" transform="rotate(0,50,50)"/>
  <ellipse cx="50" cy="20" rx="7" ry="20" fill="black" transform="rotate(40,50,50)"/>
  <ellipse cx="50" cy="20" rx="7" ry="20" fill="black" transform="rotate(80,50,50)"/>
  <ellipse cx="50" cy="20" rx="7" ry="20" fill="black" transform="rotate(120,50,50)"/>
  <ellipse cx="50" cy="20" rx="7" ry="20" fill="black" transform="rotate(160,50,50)"/>
  <ellipse cx="50" cy="20" rx="7" ry="20" fill="black" transform="rotate(200,50,50)"/>
  <ellipse cx="50" cy="20" rx="7" ry="20" fill="black" transform="rotate(240,50,50)"/>
  <ellipse cx="50" cy="20" rx="7" ry="20" fill="black" transform="rotate(280,50,50)"/>
  <ellipse cx="50" cy="20" rx="7" ry="20" fill="black" transform="rotate(320,50,50)"/>
  <circle cx="50" cy="50" r="16" fill="black"/>
</svg>
