<svg xmlns="http://www.w3.org/2000/svg" viewBox="0 0 100 100">
  <circle cx="50" cy="50" r="22" fill="black"/>
  <rect x="46" y="8" width="8" height="16" rx="4" fill="black" transform="rotate(0,50,50)"/>
  <rect x="46" y="8" width="8" height="16" rx="4" fill="black" transform="rotate(45,50,50)"/>
  <rect x="46" y="8" width="8" height="16" rx="4" fill="black" transform="rotate(90,50,50)"/>
  <rect x="46" y="8" width="8" height="16" rx="4" fill="black" transform="rotate(135,50,50)"/>
  <rect x="46" y="8" width="8" height="16" rx="4" fill="black" transform="rotate(180,50,50)"/>
  <rect x="46" y="8" width="8" height="16" rx="4" fill="black" transform="rotate(225,50,50)"/>
  <rect x="46" y="8" width="8" height="16" rx="4" fill="black" transform="rotate(270,50,50)"/>
  <rect x="46" y="8" width="8" height="16" rx="4" fill="black" transform="rotate(315,50,50)"/>
</svg>
