<svg xmlns="http://www.w3.org/2000/svg" viewBox="0 0 100 100">
  <polygon points="50,8  65,23 50,38 35,23" fill="black"/>
  <polygon points="20,38 35,53 20,68  5,53" fill="black"/>
  <polygon points="80,38 95,53 80,68 65,53" fill="black"/>
  <polygon points="50,68 65,83 50,98 35,83" fill="black"/>
  <polygon points="35,23 50,38 35,53 20,38" fill="black" opacity="0.35"/>
  <polygon points="65,23 80,38 65,53 50,38" fill="black" opacity="0.35"/>
  <polygon points="35,53 50,68 35,83 20,68" fill="black" opacity="0.35"/>
  <polygon points="65,53 80,68 65,83 50,68" fill="black" opacity="0.35"/>
  <polygon points="50,38 65,53 50,68 35,53" fill="black"/>
</svg>
